<svg xmlns="http://www.w3.org/2000/svg" width="1100" height="680" viewBox="0 0 1100 680" role="img" aria-labelledby="title desc">
<title id="title">Cu nanowire catalyst concept with Ag and Ru modifiers</title>
<desc id="desc">Schematic showing Cu nanowire growth, Ag CO generating sites, Ru hydrogenation sites, and C3 coupling on reconstructed copper.</desc>
<rect width="1100" height="680" fill="#fffaf0"/>
<text x="40" y="58" font-size="28" font-weight="700" fill="#1f2328">Cu/Ag/Ru nanowire catalyst concept</text>
<text x="40" y="88" font-size="15" fill="#667085">Mechanistic hypothesis for tandem CO supply, Cu C-C coupling, and Ru-assisted hydrogenation</text>
<rect x="70" y="505" width="960" height="70" rx="10" fill="#78350f"/>
<text x="550" y="548" text-anchor="middle" font-size="18" fill="white">Cu foam / GDE current collector</text>
<path d="M110 510 C92 408, 134 348, 100 290" stroke="#b45309" stroke-width="18" fill="none" stroke-linecap="round"/>
<path d="M110 510 C92 408, 134 348, 100 290" stroke="#fbbf24" stroke-width="5" fill="none" stroke-linecap="round"/>
<path d="M168 510 C150 405.4, 192 345.4, 180 264" stroke="#b45309" stroke-width="18" fill="none" stroke-linecap="round"/>
<path d="M168 510 C150 405.4, 192 345.4, 180 264" stroke="#fbbf24" stroke-width="5" fill="none" stroke-linecap="round"/>
<path d="M226 510 C208 402.8, 250 342.8, 216 238" stroke="#b45309" stroke-width="18" fill="none" stroke-linecap="round"/>
<path d="M226 510 C208 402.8, 250 342.8, 216 238" stroke="#fbbf24" stroke-width="5" fill="none" stroke-linecap="round"/>
<path d="M284 510 C266 400.2, 308 340.2, 296 212" stroke="#b45309" stroke-width="18" fill="none" stroke-linecap="round"/>
<path d="M284 510 C266 400.2, 308 340.2, 296 212" stroke="#fbbf24" stroke-width="5" fill="none" stroke-linecap="round"/>
<path d="M342 510 C324 408, 366 348, 332 290" stroke="#b45309" stroke-width="18" fill="none" stroke-linecap="round"/>
<path d="M342 510 C324 408, 366 348, 332 290" stroke="#fbbf24" stroke-width="5" fill="none" stroke-linecap="round"/>
<path d="M400 510 C382 405.4, 424 345.4, 412 264" stroke="#b45309" stroke-width="18" fill="none" stroke-linecap="round"/>
<path d="M400 510 C382 405.4, 424 345.4, 412 264" stroke="#fbbf24" stroke-width="5" fill="none" stroke-linecap="round"/>
<path d="M458 510 C440 402.8, 482 342.8, 448 238" stroke="#b45309" stroke-width="18" fill="none" stroke-linecap="round"/>
<path d="M458 510 C440 402.8, 482 342.8, 448 238" stroke="#fbbf24" stroke-width="5" fill="none" stroke-linecap="round"/>
<path d="M516 510 C498 400.2, 540 340.2, 528 212" stroke="#b45309" stroke-width="18" fill="none" stroke-linecap="round"/>
<path d="M516 510 C498 400.2, 540 340.2, 528 212" stroke="#fbbf24" stroke-width="5" fill="none" stroke-linecap="round"/>
<path d="M574 510 C556 408, 598 348, 564 290" stroke="#b45309" stroke-width="18" fill="none" stroke-linecap="round"/>
<path d="M574 510 C556 408, 598 348, 564 290" stroke="#fbbf24" stroke-width="5" fill="none" stroke-linecap="round"/>
<path d="M632 510 C614 405.4, 656 345.4, 644 264" stroke="#b45309" stroke-width="18" fill="none" stroke-linecap="round"/>
<path d="M632 510 C614 405.4, 656 345.4, 644 264" stroke="#fbbf24" stroke-width="5" fill="none" stroke-linecap="round"/>
<path d="M690 510 C672 402.8, 714 342.8, 680 238" stroke="#b45309" stroke-width="18" fill="none" stroke-linecap="round"/>
<path d="M690 510 C672 402.8, 714 342.8, 680 238" stroke="#fbbf24" stroke-width="5" fill="none" stroke-linecap="round"/>
<path d="M748 510 C730 400.2, 772 340.2, 760 212" stroke="#b45309" stroke-width="18" fill="none" stroke-linecap="round"/>
<path d="M748 510 C730 400.2, 772 340.2, 760 212" stroke="#fbbf24" stroke-width="5" fill="none" stroke-linecap="round"/>
<path d="M806 510 C788 408, 830 348, 796 290" stroke="#b45309" stroke-width="18" fill="none" stroke-linecap="round"/>
<path d="M806 510 C788 408, 830 348, 796 290" stroke="#fbbf24" stroke-width="5" fill="none" stroke-linecap="round"/>
<path d="M864 510 C846 405.4, 888 345.4, 876 264" stroke="#b45309" stroke-width="18" fill="none" stroke-linecap="round"/>
<path d="M864 510 C846 405.4, 888 345.4, 876 264" stroke="#fbbf24" stroke-width="5" fill="none" stroke-linecap="round"/>
<path d="M922 510 C904 402.8, 946 342.8, 912 238" stroke="#b45309" stroke-width="18" fill="none" stroke-linecap="round"/>
<path d="M922 510 C904 402.8, 946 342.8, 912 238" stroke="#fbbf24" stroke-width="5" fill="none" stroke-linecap="round"/>
<path d="M980 510 C962 400.2, 1004 340.2, 992 212" stroke="#b45309" stroke-width="18" fill="none" stroke-linecap="round"/>
<path d="M980 510 C962 400.2, 1004 340.2, 992 212" stroke="#fbbf24" stroke-width="5" fill="none" stroke-linecap="round"/>
<circle cx="138" cy="285" r="14" fill="#9ca3af" stroke="#f8fafc" stroke-width="3"/>
<text x="138" y="290" text-anchor="middle" font-size="12" fill="#1f2328">Ag</text>
<circle cx="203" cy="313" r="15" fill="#9ca3af" stroke="#f8fafc" stroke-width="3"/>
<text x="203" y="318" text-anchor="middle" font-size="12" fill="#1f2328">Ag</text>
<circle cx="268" cy="341" r="16" fill="#9ca3af" stroke="#f8fafc" stroke-width="3"/>
<text x="268" y="346" text-anchor="middle" font-size="12" fill="#1f2328">Ag</text>
<circle cx="333" cy="369" r="14" fill="#9ca3af" stroke="#f8fafc" stroke-width="3"/>
<text x="333" y="374" text-anchor="middle" font-size="12" fill="#1f2328">Ag</text>
<circle cx="398" cy="397" r="15" fill="#9ca3af" stroke="#f8fafc" stroke-width="3"/>
<text x="398" y="402" text-anchor="middle" font-size="12" fill="#1f2328">Ag</text>
<circle cx="463" cy="285" r="16" fill="#9ca3af" stroke="#f8fafc" stroke-width="3"/>
<text x="463" y="290" text-anchor="middle" font-size="12" fill="#1f2328">Ag</text>
<circle cx="528" cy="313" r="14" fill="#9ca3af" stroke="#f8fafc" stroke-width="3"/>
<text x="528" y="318" text-anchor="middle" font-size="12" fill="#1f2328">Ag</text>
<circle cx="593" cy="341" r="15" fill="#9ca3af" stroke="#f8fafc" stroke-width="3"/>
<text x="593" y="346" text-anchor="middle" font-size="12" fill="#1f2328">Ag</text>
<circle cx="658" cy="369" r="16" fill="#9ca3af" stroke="#f8fafc" stroke-width="3"/>
<text x="658" y="374" text-anchor="middle" font-size="12" fill="#1f2328">Ag</text>
<circle cx="723" cy="397" r="14" fill="#9ca3af" stroke="#f8fafc" stroke-width="3"/>
<text x="723" y="402" text-anchor="middle" font-size="12" fill="#1f2328">Ag</text>
<circle cx="788" cy="285" r="15" fill="#9ca3af" stroke="#f8fafc" stroke-width="3"/>
<text x="788" y="290" text-anchor="middle" font-size="12" fill="#1f2328">Ag</text>
<circle cx="853" cy="313" r="16" fill="#9ca3af" stroke="#f8fafc" stroke-width="3"/>
<text x="853" y="318" text-anchor="middle" font-size="12" fill="#1f2328">Ag</text>
<circle cx="918" cy="341" r="14" fill="#9ca3af" stroke="#f8fafc" stroke-width="3"/>
<text x="918" y="346" text-anchor="middle" font-size="12" fill="#1f2328">Ag</text>
<circle cx="983" cy="369" r="15" fill="#9ca3af" stroke="#f8fafc" stroke-width="3"/>
<text x="983" y="374" text-anchor="middle" font-size="12" fill="#1f2328">Ag</text>
<circle cx="185" cy="220" r="13" fill="#7c3aed" opacity="0.92"/>
<text x="185" y="225" text-anchor="middle" font-size="11" fill="white">Ru</text>
<circle cx="267" cy="262" r="13" fill="#7c3aed" opacity="0.92"/>
<text x="267" y="267" text-anchor="middle" font-size="11" fill="white">Ru</text>
<circle cx="349" cy="304" r="13" fill="#7c3aed" opacity="0.92"/>
<text x="349" y="309" text-anchor="middle" font-size="11" fill="white">Ru</text>
<circle cx="431" cy="346" r="13" fill="#7c3aed" opacity="0.92"/>
<text x="431" y="351" text-anchor="middle" font-size="11" fill="white">Ru</text>
<circle cx="513" cy="220" r="13" fill="#7c3aed" opacity="0.92"/>
<text x="513" y="225" text-anchor="middle" font-size="11" fill="white">Ru</text>
<circle cx="595" cy="262" r="13" fill="#7c3aed" opacity="0.92"/>
<text x="595" y="267" text-anchor="middle" font-size="11" fill="white">Ru</text>
<circle cx="677" cy="304" r="13" fill="#7c3aed" opacity="0.92"/>
<text x="677" y="309" text-anchor="middle" font-size="11" fill="white">Ru</text>
<circle cx="759" cy="346" r="13" fill="#7c3aed" opacity="0.92"/>
<text x="759" y="351" text-anchor="middle" font-size="11" fill="white">Ru</text>
<circle cx="841" cy="220" r="13" fill="#7c3aed" opacity="0.92"/>
<text x="841" y="225" text-anchor="middle" font-size="11" fill="white">Ru</text>
<circle cx="923" cy="262" r="13" fill="#7c3aed" opacity="0.92"/>
<text x="923" y="267" text-anchor="middle" font-size="11" fill="white">Ru</text>
<path d="M130 150 C260 90, 345 135, 455 95" stroke="#0f766e" stroke-width="3" fill="none" marker-end="url(#arrow)"/>
<text x="100" y="138" font-size="18" fill="#0f766e">CO2 to CO at Ag-rich sites</text>
<path d="M460 118 C560 170, 620 165, 705 210" stroke="#2563eb" stroke-width="3" fill="none" marker-end="url(#arrow)"/>
<text x="500" y="112" font-size="18" fill="#2563eb">CO spillover to Cu(100)/(111)</text>
<path d="M720 232 C795 280, 850 330, 930 370" stroke="#c2410c" stroke-width="3" fill="none" marker-end="url(#arrow)"/>
<text x="730" y="218" font-size="18" fill="#c2410c">C2 + C1 coupling to C3 oxygenates</text>
<rect x="748" y="424" width="240" height="54" rx="10" fill="white" stroke="#c2410c" stroke-width="2"/>
<text x="868" y="457" text-anchor="middle" font-size="18" font-weight="700" fill="#c2410c">n-propanol / propionaldehyde</text>
<rect x="70" y="610" width="960" height="34" rx="8" fill="#fff7ed" stroke="#fdba74"/>
<text x="550" y="632" text-anchor="middle" font-size="14" fill="#9a3412">Simulated figure: conceptual mechanism only. Replace with experimental evidence before submission.</text>
<defs>
  <marker id="arrow" viewBox="0 0 10 10" refX="8" refY="5" markerWidth="7" markerHeight="7" orient="auto-start-reverse">
    <path d="M 0 0 L 10 5 L 0 10 z" fill="currentColor"/>
  </marker>
</defs>
</svg>