<svg xmlns="http://www.w3.org/2000/svg" width="980" height="600" viewBox="0 0 980 600" role="img" aria-labelledby="title desc">
<title id="title">Simulated flow-cell stability</title>
<desc id="desc">Line plot of synthetic current density, C2+ faradaic efficiency, and C3 faradaic efficiency over 12 hours.</desc>
<rect width="980" height="600" fill="white"/>
<line x1="82" y1="470" x2="792" y2="470" stroke="#e5e7eb"/>
<text x="72" y="474" text-anchor="end" font-size="12" fill="#667085">0</text>
<line x1="82" y1="372.5" x2="792" y2="372.5" stroke="#e5e7eb"/>
<text x="72" y="376.5" text-anchor="end" font-size="12" fill="#667085">25</text>
<line x1="82" y1="275" x2="792" y2="275" stroke="#e5e7eb"/>
<text x="72" y="279" text-anchor="end" font-size="12" fill="#667085">50</text>
<line x1="82" y1="177.5" x2="792" y2="177.5" stroke="#e5e7eb"/>
<text x="72" y="181.5" text-anchor="end" font-size="12" fill="#667085">75</text>
<line x1="82" y1="80" x2="792" y2="80" stroke="#e5e7eb"/>
<text x="72" y="84" text-anchor="end" font-size="12" fill="#667085">100</text>
<line x1="82" y1="80" x2="82" y2="470" stroke="#1f2328" stroke-width="2"/>
<line x1="82" y1="470" x2="792" y2="470" stroke="#1f2328" stroke-width="2"/>
<text x="437" y="584" text-anchor="middle" font-size="14" fill="#1f2328">Time / h</text>
<text x="18" y="275" text-anchor="middle" font-size="14" fill="#1f2328" transform="rotate(-90 18 275)">Normalized value or FE / %</text>
<text x="62" y="42" font-size="24" font-weight="700" fill="#1f2328">Flow-cell stability target</text>
<text x="82" y="494" text-anchor="middle" font-size="12" fill="#667085">0</text>
<text x="200.33333333333331" y="494" text-anchor="middle" font-size="12" fill="#667085">2</text>
<text x="318.66666666666663" y="494" text-anchor="middle" font-size="12" fill="#667085">4</text>
<text x="437" y="494" text-anchor="middle" font-size="12" fill="#667085">6</text>
<text x="555.3333333333333" y="494" text-anchor="middle" font-size="12" fill="#667085">8</text>
<text x="673.6666666666667" y="494" text-anchor="middle" font-size="12" fill="#667085">10</text>
<text x="792" y="494" text-anchor="middle" font-size="12" fill="#667085">12</text>
<polyline fill="none" stroke="#1f2328" stroke-width="3" points="82,197 200.3,164.5 318.7,145 437,147.6 555.3,155.4 673.7,163.2 792,171"/>
<polyline fill="none" stroke="#2563eb" stroke-width="3" points="82,310.1 200.3,282.8 318.7,259.4 437,255.5 555.3,263.3 673.7,267.2 792,275"/>
<polyline fill="none" stroke="#c2410c" stroke-width="3" points="82,438.8 200.3,423.2 318.7,407.6 437,399.8 555.3,403.7 673.7,407.6 792,411.5"/>
<circle cx="82" cy="197" r="5" fill="#1f2328"/>
<circle cx="200.3" cy="164.5" r="5" fill="#1f2328"/>
<circle cx="318.7" cy="145" r="5" fill="#1f2328"/>
<circle cx="437" cy="147.6" r="5" fill="#1f2328"/>
<circle cx="555.3" cy="155.4" r="5" fill="#1f2328"/>
<circle cx="673.7" cy="163.2" r="5" fill="#1f2328"/>
<circle cx="792" cy="171" r="5" fill="#1f2328"/>
<circle cx="82" cy="310.1" r="5" fill="#2563eb"/>
<circle cx="200.3" cy="282.8" r="5" fill="#2563eb"/>
<circle cx="318.7" cy="259.4" r="5" fill="#2563eb"/>
<circle cx="437" cy="255.5" r="5" fill="#2563eb"/>
<circle cx="555.3" cy="263.3" r="5" fill="#2563eb"/>
<circle cx="673.7" cy="267.2" r="5" fill="#2563eb"/>
<circle cx="792" cy="275" r="5" fill="#2563eb"/>
<circle cx="82" cy="438.8" r="5" fill="#c2410c"/>
<circle cx="200.3" cy="423.2" r="5" fill="#c2410c"/>
<circle cx="318.7" cy="407.6" r="5" fill="#c2410c"/>
<circle cx="437" cy="399.8" r="5" fill="#c2410c"/>
<circle cx="555.3" cy="403.7" r="5" fill="#c2410c"/>
<circle cx="673.7" cy="407.6" r="5" fill="#c2410c"/>
<circle cx="792" cy="411.5" r="5" fill="#c2410c"/>
<rect x="808" y="104" width="142" height="96" rx="8" fill="white" stroke="#e5e7eb"/>
<circle cx="826" cy="130" r="5" fill="#1f2328"/><text x="842" y="135" font-size="13" fill="#1f2328">j / 300</text>
<circle cx="826" cy="158" r="5" fill="#2563eb"/><text x="842" y="163" font-size="13" fill="#1f2328">C2+ FE</text>
<circle cx="826" cy="186" r="5" fill="#c2410c"/><text x="842" y="191" font-size="13" fill="#1f2328">C3 FE</text>
<text x="490" y="555" text-anchor="middle" font-size="13" fill="#667085">Synthetic planning data for target behavior in alkaline flow-cell operation.</text>
</svg>