<svg xmlns="http://www.w3.org/2000/svg" width="980" height="600" viewBox="0 0 980 600" role="img" aria-labelledby="title desc">
<title id="title">Simulated modifier comparison</title>
<desc id="desc">Grouped bar chart showing synthetic CO, C2, and C3 faradaic efficiencies for Cu, Cu-Ag, Cu-Ru, and Cu-Ag-Ru nanowires.</desc>
<rect width="980" height="600" fill="white"/>
<text x="62" y="42" font-size="24" font-weight="700" fill="#1f2328">Modifier comparison: working hypothesis</text>
<line x1="82" y1="455" x2="900" y2="455" stroke="#e5e7eb"/><text x="70" y="459" text-anchor="end" font-size="12" fill="#667085">0</text>
<line x1="82" y1="364.25" x2="900" y2="364.25" stroke="#e5e7eb"/><text x="70" y="368.25" text-anchor="end" font-size="12" fill="#667085">15</text>
<line x1="82" y1="273.5" x2="900" y2="273.5" stroke="#e5e7eb"/><text x="70" y="277.5" text-anchor="end" font-size="12" fill="#667085">30</text>
<line x1="82" y1="182.75" x2="900" y2="182.75" stroke="#e5e7eb"/><text x="70" y="186.75" text-anchor="end" font-size="12" fill="#667085">45</text>
<line x1="82" y1="92" x2="900" y2="92" stroke="#e5e7eb"/><text x="70" y="96" text-anchor="end" font-size="12" fill="#667085">60</text>
<line x1="82" y1="92" x2="82" y2="455" stroke="#1f2328" stroke-width="2"/>
<line x1="82" y1="455" x2="900" y2="455" stroke="#1f2328" stroke-width="2"/>
<rect x="120" y="370.3" width="34" height="84.7" fill="#0f766e" rx="4"/>
<text x="137" y="362.3" text-anchor="middle" font-size="12" fill="#1f2328">14</text>
<rect x="170" y="267.45000000000005" width="34" height="187.54999999999998" fill="#2563eb" rx="4"/>
<text x="187" y="259.45000000000005" text-anchor="middle" font-size="12" fill="#1f2328">31</text>
<rect x="220" y="424.75" width="34" height="30.25" fill="#c2410c" rx="4"/>
<text x="237" y="416.75" text-anchor="middle" font-size="12" fill="#1f2328">5</text><text x="187" y="505" text-anchor="middle" font-size="13" fill="#1f2328">Cu NW</text>
<rect x="300" y="291.65" width="34" height="163.35" fill="#0f766e" rx="4"/>
<text x="317" y="283.65" text-anchor="middle" font-size="12" fill="#1f2328">27</text>
<rect x="350" y="243.25" width="34" height="211.75" fill="#2563eb" rx="4"/>
<text x="367" y="235.25" text-anchor="middle" font-size="12" fill="#1f2328">35</text>
<rect x="400" y="400.55" width="34" height="54.449999999999996" fill="#c2410c" rx="4"/>
<text x="417" y="392.55" text-anchor="middle" font-size="12" fill="#1f2328">9</text><text x="367" y="505" text-anchor="middle" font-size="13" fill="#1f2328">Cu-Ag NW</text>
<rect x="480" y="382.4" width="34" height="72.6" fill="#0f766e" rx="4"/>
<text x="497" y="374.4" text-anchor="middle" font-size="12" fill="#1f2328">12</text>
<rect x="530" y="279.55" width="34" height="175.45" fill="#2563eb" rx="4"/>
<text x="547" y="271.55" text-anchor="middle" font-size="12" fill="#1f2328">29</text>
<rect x="580" y="388.45" width="34" height="66.55" fill="#c2410c" rx="4"/>
<text x="597" y="380.45" text-anchor="middle" font-size="12" fill="#1f2328">11</text><text x="547" y="505" text-anchor="middle" font-size="13" fill="#1f2328">Cu-Ru NW</text>
<rect x="660" y="340.05" width="34" height="114.95" fill="#0f766e" rx="4"/>
<text x="677" y="332.05" text-anchor="middle" font-size="12" fill="#1f2328">19</text>
<rect x="710" y="219.05" width="34" height="235.95" fill="#2563eb" rx="4"/>
<text x="727" y="211.05" text-anchor="middle" font-size="12" fill="#1f2328">39</text>
<rect x="760" y="346.1" width="34" height="108.89999999999999" fill="#c2410c" rx="4"/>
<text x="777" y="338.1" text-anchor="middle" font-size="12" fill="#1f2328">18</text><text x="727" y="505" text-anchor="middle" font-size="13" fill="#1f2328">Cu-Ag-Ru NW</text>
<text x="22" y="280" text-anchor="middle" font-size="14" fill="#1f2328" transform="rotate(-90 22 280)">Faradaic efficiency / %</text>
<circle cx="765" cy="96" r="6" fill="#0f766e"/><text x="782" y="101" font-size="13" fill="#1f2328">CO</text>
<circle cx="765" cy="124" r="6" fill="#2563eb"/><text x="782" y="129" font-size="13" fill="#1f2328">C2</text>
<circle cx="765" cy="152" r="6" fill="#c2410c"/><text x="782" y="157" font-size="13" fill="#1f2328">C3</text>
<text x="490" y="555" text-anchor="middle" font-size="13" fill="#667085">Synthetic planning data. Actual values must be replaced by GC/NMR quantification.</text>
</svg>